<?xml version="1.0" encoding="UTF-8" standalone="no"?>
<!-- Created with Inkscape (http://www.inkscape.org/) -->

<svg
   width="1411.4247"
   height="268.93985"
   viewBox="0 0 1411.4247 268.93986"
   version="1.1"
   id="svg3671"
   sodipodi:docname="logo-sustentable.svg"
   inkscape:version="1.1.2 (0a00cf5339, 2022-02-04)"
   xmlns:inkscape="http://www.inkscape.org/namespaces/inkscape"
   xmlns:sodipodi="http://sodipodi.sourceforge.net/DTD/sodipodi-0.dtd"
   xmlns:xlink="http://www.w3.org/1999/xlink"
   xmlns="http://www.w3.org/2000/svg"
   xmlns:svg="http://www.w3.org/2000/svg">
  <sodipodi:namedview
     id="namedview844"
     pagecolor="#cbcbcb"
     bordercolor="#666666"
     borderopacity="1.0"
     inkscape:pageshadow="2"
     inkscape:pageopacity="0"
     inkscape:pagecheckerboard="0"
     showgrid="false"
     inkscape:zoom="0.34533744"
     inkscape:cx="228.76176"
     inkscape:cy="7.2392961"
     inkscape:window-width="1920"
     inkscape:window-height="1016"
     inkscape:window-x="0"
     inkscape:window-y="27"
     inkscape:window-maximized="1"
     inkscape:current-layer="svg3671"
     fit-margin-top="0"
     fit-margin-left="0"
     fit-margin-right="0"
     fit-margin-bottom="0" />
  <defs
     id="defs3668">
    <linearGradient
       id="linearGradient4558">
      <stop
         style="stop-color:#000000;stop-opacity:1;"
         offset="0"
         id="stop4554" />
      <stop
         style="stop-color:#00aa44;stop-opacity:1"
         offset="0.36893982"
         id="stop6504" />
      <stop
         style="stop-color:#000000;stop-opacity:0.62745098;"
         offset="0.49352545"
         id="stop5176" />
      <stop
         style="stop-color:#000000;stop-opacity:0.50588235;"
         offset="0.49352545"
         id="stop4852" />
      <stop
         style="stop-color:#d4aa00;stop-opacity:1"
         offset="0.61176026"
         id="stop5110" />
      <stop
         style="stop-color:#808080;stop-opacity:1"
         offset="1"
         id="stop4556" />
    </linearGradient>
    <linearGradient
       xlink:href="#linearGradient4558"
       id="linearGradient4560"
       x1="181.34181"
       y1="300.09146"
       x2="180.17647"
       y2="36.133846"
       gradientUnits="userSpaceOnUse" />
  </defs>
  <path
     id="circle3624"
     style="fill:#ffffff;fill-opacity:1;stroke:none;stroke-width:7.25834;stroke-linecap:round;paint-order:markers stroke fill"
     d="M 136.75586 0.01953125 C 100.18893 -0.61023482 63.497815 13.591273 36.462891 42.326172 C 2.7522606 78.21333 -8.6504056 129.65589 6.7402344 176.42578 C 13.854364 168.99174 23.303932 159.26131 35.820312 146.53516 C 123.1715 33.568253 185.17293 163.58886 233.77539 171.60352 C 242.94259 173.6096 253.13624 173.56322 263.42969 172.30273 C 277.67878 123.71089 263.42137 71.234536 226.54297 36.533203 C 201.18861 12.678895 169.0208 0.57520719 136.75586 0.01953125 z M 531.50977 81.226562 L 531.50977 96.880859 L 543.87305 96.880859 L 543.87305 81.226562 L 531.50977 81.226562 z M 1241.0273 81.226562 L 1241.0273 185.76367 L 1253.4551 185.76367 L 1253.4551 174.47852 C 1256.0529 178.95742 1259.3223 182.29362 1263.2637 184.48828 C 1267.2499 186.63816 1271.9987 187.71289 1277.5078 187.71289 C 1286.6447 187.71289 1294.0559 184.0859 1299.7441 176.83008 C 1305.4771 169.57424 1308.3438 160.03329 1308.3438 148.20898 C 1308.3436 136.38467 1305.4771 126.84372 1299.7441 119.58789 C 1294.0559 112.33206 1286.6447 108.70508 1277.5078 108.70508 C 1271.9987 108.70508 1267.2499 109.80143 1263.2637 111.99609 C 1259.3223 114.14597 1256.0529 117.46055 1253.4551 121.93945 L 1253.4551 81.226562 L 1241.0273 81.226562 z M 1318.8359 81.226562 L 1318.8359 185.76367 L 1331.1973 185.76367 L 1331.1973 81.226562 L 1318.8359 81.226562 z M 742.50781 83.646484 C 731.53449 83.646484 722.91304 86.198735 716.64258 91.304688 C 710.4169 96.41064 707.30469 103.3974 707.30469 112.26562 C 707.30469 119.92457 709.56615 125.90338 714.08984 130.20312 C 718.61354 134.50288 725.93627 137.66027 736.05859 139.67578 L 744.32227 141.28906 C 751.21978 142.67752 756.16906 144.76019 759.16992 147.53711 C 762.21558 150.31403 763.73828 154.165 763.73828 159.0918 C 763.73828 164.73522 761.634 169.0813 757.42383 172.12695 C 753.21365 175.17261 747.23288 176.69531 739.48438 176.69531 C 734.37842 176.69531 729.18354 175.91137 723.89844 174.34375 C 718.61332 172.77614 713.21608 170.44592 707.70703 167.35547 L 707.70703 181.33008 C 713.44003 183.43516 718.97088 185.02467 724.30078 186.09961 C 729.67547 187.17455 734.73672 187.71289 739.48438 187.71289 C 752.0701 187.71289 761.61106 185.20388 768.10547 180.1875 C 774.64468 175.17113 777.91406 167.80321 777.91406 158.08398 C 777.91406 149.93238 775.49542 143.43878 770.6582 138.60156 C 765.86577 133.71956 758.40944 130.31655 748.28711 128.39062 L 740.08984 126.71094 C 732.65486 125.32247 727.5936 123.50703 724.90625 121.26758 C 722.2637 118.98334 720.94336 115.62552 720.94336 111.19141 C 720.94336 105.90629 722.93564 101.82939 726.92188 98.962891 C 730.95289 96.096391 736.66253 94.664062 744.05273 94.664062 C 748.30769 94.664062 752.72058 95.269211 757.28906 96.478516 C 761.85755 97.68782 766.71645 99.522931 771.86719 101.98633 L 771.86719 88.751953 C 766.76123 87.049968 761.76677 85.772867 756.88477 84.921875 C 752.00276 84.070883 747.21067 83.646484 742.50781 83.646484 z M 334.02734 85.458984 L 334.02734 185.76367 L 347.59766 185.76367 L 347.59766 143.37109 L 362.37891 143.37109 C 367.75359 143.37109 371.98573 144.4694 375.07617 146.66406 C 378.21141 148.85873 381.43561 153.31484 384.75 160.0332 L 397.58203 185.76367 L 412.16211 185.76367 L 398.38867 158.35352 C 395.61175 152.71009 392.83551 148.27559 390.05859 145.05078 C 387.32646 141.82597 384.50504 139.72169 381.59375 138.73633 C 387.19238 137.12392 391.44613 134.23569 394.35742 130.07031 C 397.3135 125.90493 398.79102 120.66292 398.79102 114.34766 C 398.79102 104.67322 395.96959 97.440867 390.32617 92.648438 C 384.68275 87.856008 376.12811 85.458984 364.66211 85.458984 L 334.02734 85.458984 z M 487.36133 89.154297 L 487.36133 110.51953 L 478.29102 110.51953 L 478.29102 120.12695 L 487.36133 120.12695 L 487.36133 160.97461 C 487.36133 170.38031 489.17482 176.8739 492.80273 180.45703 C 496.43065 183.99536 503.01462 185.76367 512.55469 185.76367 L 525.25195 185.76367 L 525.25195 175.41797 L 512.55469 175.41797 C 507.40395 175.41797 503.97738 174.5456 502.27539 172.79883 C 500.6182 171.05205 499.78906 167.11071 499.78906 160.97461 L 499.78906 120.12695 L 525.25195 120.12695 L 525.25195 110.51953 L 499.78906 110.51953 L 499.78906 89.154297 L 487.36133 89.154297 z M 927.22656 89.154297 L 927.22656 110.51953 L 918.1582 110.51953 L 918.1582 120.12695 L 927.22656 120.12695 L 927.22656 160.97461 C 927.22656 170.38031 929.04201 176.8739 932.66992 180.45703 C 936.29784 183.99536 942.8818 185.76367 952.42188 185.76367 L 965.11914 185.76367 L 965.11914 175.41797 L 952.42188 175.41797 C 947.27112 175.41797 943.84456 174.5456 942.14258 172.79883 C 940.48538 171.05205 939.65625 167.11071 939.65625 160.97461 L 939.65625 120.12695 L 965.11914 120.12695 L 965.11914 110.51953 L 939.65625 110.51953 L 939.65625 89.154297 L 927.22656 89.154297 z M 1123.0312 89.154297 L 1123.0312 110.51953 L 1113.9609 110.51953 L 1113.9609 120.12695 L 1123.0312 120.12695 L 1123.0312 160.97461 C 1123.0314 170.38031 1124.8447 176.8739 1128.4727 180.45703 C 1132.1006 183.99536 1138.6845 185.76367 1148.2246 185.76367 L 1160.9219 185.76367 L 1160.9219 175.41797 L 1148.2246 175.41797 C 1143.0739 175.41797 1139.6473 174.5456 1137.9453 172.79883 C 1136.2881 171.05205 1135.4609 167.11071 1135.4609 160.97461 L 1135.4609 120.12695 L 1160.9219 120.12695 L 1160.9219 110.51953 L 1135.4609 110.51953 L 1135.4609 89.154297 L 1123.0312 89.154297 z M 347.59766 96.611328 L 364.66211 96.611328 C 371.20131 96.611328 376.12897 98.112414 379.44336 101.11328 C 382.80254 104.06935 384.48242 108.48029 384.48242 114.34766 C 384.48242 120.21503 382.80254 124.6731 379.44336 127.71875 C 376.12897 130.71962 371.20131 132.21875 364.66211 132.21875 L 347.59766 132.21875 L 347.59766 96.611328 z M 444.41992 108.70508 C 433.13308 108.70508 424.15209 112.33206 417.47852 119.58789 C 410.84974 126.79892 407.53516 136.56387 407.53516 148.88086 C 407.53516 160.79475 411.03048 170.24533 418.01758 177.23242 C 425.04946 184.21952 434.56684 187.71289 446.57031 187.71289 C 451.36274 187.71289 456.08803 187.21972 460.74609 186.23438 C 465.40416 185.24902 469.95065 183.81669 474.38477 181.93555 L 474.38477 170.24609 C 469.99544 172.57513 465.56094 174.32181 461.08203 175.48633 C 456.64792 176.65085 452.05623 177.23242 447.30859 177.23242 C 439.11219 177.23242 432.70702 175.01615 428.09375 170.58203 C 423.52526 166.10312 420.97301 159.60758 420.43555 151.09766 L 477.27344 151.09766 L 477.27344 145.05078 C 477.27344 133.85351 474.31646 125.00809 468.4043 118.51367 C 462.53693 111.97447 454.54225 108.70508 444.41992 108.70508 z M 597.02539 108.70508 C 591.06844 108.70508 586.00718 109.825 581.8418 112.06445 C 577.67642 114.25912 574.29503 117.6405 571.69727 122.20898 L 571.69727 110.51953 L 559.26758 110.51953 L 559.26758 185.76367 L 571.69727 185.76367 L 571.69727 146.12695 C 571.69727 137.61703 573.55594 131.09987 577.27344 126.57617 C 581.03572 122.00769 586.40939 119.72266 593.39648 119.72266 C 595.3672 119.72266 597.15908 119.92504 598.77148 120.32812 C 600.42868 120.68645 601.95138 121.26801 603.33984 122.07422 L 603.27344 109.37695 C 602.01934 109.15301 600.87586 108.99583 599.8457 108.90625 C 598.81556 108.77188 597.87638 108.70508 597.02539 108.70508 z M 632.44141 108.70508 C 621.64724 108.70508 613.18102 112.19845 607.04492 119.18555 C 600.95361 126.17264 597.9082 135.8472 597.9082 148.20898 C 597.9082 160.52597 600.95361 170.20054 607.04492 177.23242 C 613.18102 184.21952 621.64724 187.71289 632.44141 187.71289 C 643.19078 187.71289 651.63343 184.21952 657.76953 177.23242 C 663.90563 170.20054 666.97266 160.52597 666.97266 148.20898 C 666.97266 135.8472 663.90563 126.17264 657.76953 119.18555 C 651.63343 112.19845 643.19078 108.70508 632.44141 108.70508 z M 889.66211 108.70508 C 880.43556 108.70508 873.31325 110.63056 868.29688 114.48242 C 863.28049 118.33428 860.77148 123.79833 860.77148 130.875 C 860.77148 136.69758 862.47493 141.28926 865.87891 144.64844 C 869.28287 147.96283 874.81373 150.42666 882.47266 152.03906 L 886.77148 153.04688 C 894.43042 154.70407 899.37969 156.42719 901.61914 158.21875 C 903.90338 160.01031 905.04688 162.58613 905.04688 165.94531 C 905.04688 169.57323 903.47898 172.39464 900.34375 174.41016 C 897.20852 176.38087 892.72883 177.36719 886.90625 177.36719 C 882.56171 177.36719 878.17239 176.78365 873.73828 175.61914 C 869.30416 174.40983 864.80285 172.61991 860.23438 170.24609 L 860.23438 183.00977 C 865.0716 184.57738 869.66327 185.74249 874.00781 186.50391 C 878.39714 187.31011 882.60766 187.71289 886.63867 187.71289 C 896.31311 187.71289 903.90501 185.67542 909.41406 181.59961 C 914.96791 177.5238 917.74414 171.991 917.74414 165.00391 C 917.74414 158.86781 915.88546 154.09928 912.16797 150.69531 C 908.49527 147.24655 902.26889 144.58036 893.49023 142.69922 L 889.25781 141.75977 C 882.62903 140.28173 878.2181 138.73545 876.02344 137.12305 C 873.82877 135.46585 872.73047 133.20439 872.73047 130.33789 C 872.73047 126.57561 874.25317 123.75419 877.29883 121.87305 C 880.38927 119.99191 885.00257 119.05078 891.13867 119.05078 C 895.16969 119.05078 899.0678 119.49875 902.83008 120.39453 C 906.59236 121.29031 910.21934 122.63422 913.71289 124.42578 L 913.71289 112.73633 C 910.30892 111.39265 906.59156 110.38472 902.56055 109.71289 C 898.52953 109.04105 894.23059 108.70508 889.66211 108.70508 z M 1002.8867 108.70508 C 991.5999 108.70508 982.61889 112.33206 975.94531 119.58789 C 969.31653 126.79892 966.00195 136.56387 966.00195 148.88086 C 966.00195 160.79475 969.49533 170.24533 976.48242 177.23242 C 983.51431 184.21952 993.03364 187.71289 1005.0371 187.71289 C 1009.8295 187.71289 1014.5529 187.21972 1019.2109 186.23438 C 1023.869 185.24902 1028.4155 183.81669 1032.8496 181.93555 L 1032.8496 170.24609 C 1028.4603 172.57513 1024.0258 174.32181 1019.5469 175.48633 C 1015.1128 176.65085 1010.5231 177.23242 1005.7754 177.23242 C 997.57898 177.23242 991.17382 175.01615 986.56055 170.58203 C 981.99207 166.10312 979.43982 159.60758 978.90234 151.09766 L 1035.7383 151.09766 L 1035.7383 145.05078 C 1035.7383 133.85351 1032.7833 125.00809 1026.8711 118.51367 C 1021.0038 111.97447 1013.0091 108.70508 1002.8867 108.70508 z M 1082.3066 108.70508 C 1077.0664 108.70508 1072.4315 109.825 1068.4004 112.06445 C 1064.4142 114.30391 1060.9424 117.68528 1057.9863 122.20898 L 1057.9863 110.51953 L 1045.5586 110.51953 L 1045.5586 185.76367 L 1057.9863 185.76367 L 1057.9863 143.23828 C 1057.9863 135.89287 1059.9138 130.0909 1063.7656 125.83594 C 1067.6175 121.58098 1072.8792 119.45508 1079.5527 119.45508 C 1085.1066 119.45508 1089.2719 121.22339 1092.0488 124.76172 C 1094.8257 128.30006 1096.2148 133.63049 1096.2148 140.75195 L 1096.2148 185.76367 L 1108.5762 185.76367 L 1108.5762 140.34766 C 1108.5762 129.9566 1106.3598 122.09748 1101.9258 116.76758 C 1097.4916 111.39289 1090.951 108.70508 1082.3066 108.70508 z M 1193.584 108.70508 C 1189.5529 108.70508 1185.4113 109.15304 1181.1562 110.04883 C 1176.9014 110.89981 1172.512 112.19854 1167.9883 113.94531 L 1167.9883 125.36719 C 1171.7505 123.30689 1175.6683 121.76062 1179.7441 120.73047 C 1183.82 119.70032 1188.0089 119.18555 1192.3086 119.18555 C 1199.0717 119.18555 1204.3118 120.75344 1208.0293 123.88867 C 1211.7916 126.97912 1213.6719 131.36843 1213.6719 137.05664 L 1213.6719 138.26562 L 1196.3398 138.26562 C 1185.0978 138.26562 1176.6316 140.41509 1170.9434 144.71484 C 1165.3 149.01459 1162.4785 155.39815 1162.4785 163.86328 C 1162.4785 171.11911 1164.74 176.91913 1169.2637 181.26367 C 1173.8321 185.56343 1179.9681 187.71289 1187.6719 187.71289 C 1193.7632 187.71289 1198.9149 186.63816 1203.125 184.48828 C 1207.3352 182.29362 1210.8501 178.91224 1213.6719 174.34375 L 1213.6719 185.76367 L 1226.0332 185.76367 L 1226.0332 142.83398 C 1226.0332 131.36798 1223.3473 122.81334 1217.9727 117.16992 C 1212.598 111.5265 1204.4677 108.70508 1193.584 108.70508 z M 1378.5723 108.70508 C 1367.2854 108.70508 1358.3045 112.33206 1351.6309 119.58789 C 1345.0021 126.79892 1341.6875 136.56387 1341.6875 148.88086 C 1341.6875 160.79475 1345.1809 170.24533 1352.168 177.23242 C 1359.1998 184.21952 1368.7192 187.71289 1380.7227 187.71289 C 1385.5151 187.71289 1390.2404 187.21972 1394.8984 186.23438 C 1399.5565 185.24902 1404.1011 183.81669 1408.5352 181.93555 L 1408.5352 170.24609 C 1404.1458 172.57513 1399.7132 174.32181 1395.2344 175.48633 C 1390.8002 176.65085 1386.2086 177.23242 1381.4609 177.23242 C 1373.2645 177.23242 1366.8594 175.01615 1362.2461 170.58203 C 1357.6776 166.10312 1355.1254 159.60758 1354.5879 151.09766 L 1411.4238 151.09766 L 1411.4238 145.05078 C 1411.4238 133.85351 1408.4688 125.00809 1402.5566 118.51367 C 1396.6892 111.97447 1388.6945 108.70508 1378.5723 108.70508 z M 531.50977 110.51953 L 531.50977 185.76367 L 543.87305 185.76367 L 543.87305 110.51953 L 531.50977 110.51953 z M 787.26367 110.51953 L 787.26367 156.07031 C 787.26367 166.41658 789.50157 174.2757 793.98047 179.65039 C 798.45938 185.02508 805.02172 187.71289 813.66602 187.71289 C 818.90634 187.71289 823.49802 186.61653 827.43945 184.42188 C 831.42568 182.18242 834.91906 178.77747 837.91992 174.20898 L 837.91992 185.76367 L 850.28125 185.76367 L 850.28125 110.51953 L 837.91992 110.51953 L 837.91992 153.17969 C 837.91992 160.52509 835.97087 166.32707 832.07422 170.58203 C 828.22236 174.83699 822.96068 176.96289 816.28711 176.96289 C 810.73326 176.96289 806.56794 175.19458 803.79102 171.65625 C 801.0141 168.07312 799.625 162.72107 799.625 155.59961 L 799.625 110.51953 L 787.26367 110.51953 z M 1274.4844 119.05078 C 1281.0236 119.05078 1286.1517 121.64822 1289.8691 126.84375 C 1293.6315 131.9945 1295.5117 139.1168 1295.5117 148.20898 C 1295.5117 157.30116 1293.6315 164.44509 1289.8691 169.64062 C 1286.1517 174.79137 1281.0236 177.36719 1274.4844 177.36719 C 1267.9452 177.36719 1262.7935 174.79138 1259.0312 169.64062 C 1255.3138 164.44509 1253.4551 157.30116 1253.4551 148.20898 C 1253.4551 139.1168 1255.3137 131.9945 1259.0312 126.84375 C 1262.7936 121.64822 1267.9452 119.05078 1274.4844 119.05078 z M 444.55469 119.18555 C 450.646 119.18555 455.52847 121.2014 459.20117 125.23242 C 462.91867 129.26344 464.82058 134.66068 464.91016 141.42383 L 420.83789 141.49023 C 421.46494 134.41356 423.83839 128.9279 427.95898 125.03125 C 432.12437 121.1346 437.65717 119.18555 444.55469 119.18555 z M 632.44141 119.18555 C 639.02539 119.18555 644.24384 121.80655 648.0957 127.04688 C 651.94756 132.24241 653.87305 139.29596 653.87305 148.20898 C 653.87305 157.16679 651.94756 164.24392 648.0957 169.43945 C 644.24384 174.63499 639.02539 177.23242 632.44141 177.23242 C 625.76783 177.23242 620.5042 174.65661 616.65234 169.50586 C 612.84528 164.31033 610.94141 157.21158 610.94141 148.20898 C 610.94141 139.20638 612.86884 132.12926 616.7207 126.97852 C 620.57256 121.78298 625.81262 119.18555 632.44141 119.18555 z M 1003.0215 119.18555 C 1009.1128 119.18555 1013.9933 121.2014 1017.666 125.23242 C 1021.3835 129.26344 1023.2874 134.66068 1023.377 141.42383 L 979.30469 141.49023 C 979.93173 134.41356 982.30519 128.9279 986.42578 125.03125 C 990.59117 121.1346 996.12393 119.18555 1003.0215 119.18555 z M 1378.707 119.18555 C 1384.7984 119.18555 1389.6789 121.2014 1393.3516 125.23242 C 1397.0691 129.26344 1398.973 134.66068 1399.0625 141.42383 L 1354.9902 141.49023 C 1355.6173 134.41356 1357.9907 128.9279 1362.1113 125.03125 C 1366.2767 121.1346 1371.8095 119.18555 1378.707 119.18555 z M 1201.377 147.93945 L 1213.6719 147.93945 L 1213.6719 150.69531 C 1213.6719 158.75734 1211.5892 165.22931 1207.4238 170.11133 C 1203.3032 174.94854 1197.8176 177.36719 1190.9648 177.36719 C 1185.9932 177.36719 1182.0519 176.09008 1179.1406 173.53711 C 1176.2741 170.93934 1174.8398 167.44597 1174.8398 163.05664 C 1174.8398 157.54759 1176.7653 153.65143 1180.6172 151.36719 C 1184.4691 149.08295 1191.389 147.93945 1201.377 147.93945 z M 103.61133 157.60938 C 94.697197 158.08991 86.751521 163.463 77.621094 172.99609 L 33.337891 223.06836 C 36.159691 226.32263 39.134899 229.43963 42.255859 232.4082 C 96.345159 283.29737 181.44863 280.7025 232.33789 226.61328 C 233.2598 225.58536 234.16488 224.54216 235.05469 223.48633 C 208.30288 219.80353 188.1582 208.02081 176.70312 201.74805 C 143.50763 178.95361 148.23122 179.30758 127.18359 165.71289 C 118.06323 159.82204 110.54454 157.23562 103.61133 157.60938 z " />
</svg>
