<?xml version="1.0" encoding="UTF-8" standalone="no"?>
<!-- Created with Inkscape (http://www.inkscape.org/) -->

<svg
   width="800"
   height="350.16223"
   viewBox="0 0 800 350.16225"
   version="1.1"
   id="svg3671"
   xmlns="http://www.w3.org/2000/svg"
   xmlns:svg="http://www.w3.org/2000/svg">
  <defs
     id="defs3668" />
  <g
     id="layer1"
     transform="translate(-8.098423,1.8751405)">
    <path
       id="path1110"
       style="font-size:204.563px;line-height:1.25;font-family:Mallanna;-inkscape-font-specification:'Mallanna, Normal';word-spacing:0px;stroke-width:5.11407;fill:#ffffff"
       d="M 203.49219 0 C 190.14795 4.2685027 176.80519 8.5361845 163.46094 12.804688 C 163.65623 13.220963 163.84969 13.638326 164.04492 14.054688 C 173.87767 36.431476 181.82191 59.994926 184.17578 84.441406 C 185.36375 96.594258 184.30917 108.99956 180.34375 120.58789 C 174.5205 139.3139 164.44559 157.14529 149.51172 170.07031 C 134.18863 189.21933 123.75332 213.46904 123.96289 238.36133 C 123.99869 259.96866 133.34103 280.71811 147.28125 296.92773 C 157.02165 307.9118 167.629 318.09832 177.85352 328.62891 C 185.12901 335.93139 192.32848 343.23787 199.90625 350.16211 C 210.49932 338.41696 221.09249 326.67287 231.68555 314.92773 C 229.82332 313.19905 227.95962 311.4714 226.0957 309.74414 A 134.46968 134.46968 0 0 0 232.40625 303.7168 A 134.46968 134.46968 0 0 0 229.67383 116.66211 C 229.97256 115.18565 230.29716 113.71617 230.53516 112.22266 C 234.56553 89.009519 230.70162 64.907755 221.4707 43.367188 C 215.6192 28.855354 210.04585 14.214422 203.49219 0 z M 135.80469 77.117188 A 134.46968 134.46968 0 0 0 36.533203 119.43164 A 134.46968 134.46968 0 0 0 42.326172 309.51172 A 134.46968 134.46968 0 0 0 176.42578 339.23242 C 168.99174 332.11828 159.25935 322.67068 146.5332 310.1543 C 78.217279 242.96453 139.98828 170.72656 139.98828 170.72656 C 139.98828 170.72656 162.67365 152.99623 171.60156 112.19922 C 173.60764 103.03203 173.56322 92.838377 172.30273 82.544922 A 134.46968 134.46968 0 0 0 135.80469 77.117188 z M 353.72461 147.34766 C 337.42227 147.34766 323.54846 152.91348 312.10547 164.04297 C 300.81924 175.17245 295.17578 188.96669 295.17578 205.42578 C 295.17578 221.72811 300.97643 235.44278 312.57617 246.57227 C 324.17591 257.54499 337.89253 263.03125 353.72461 263.03125 C 363.75682 263.03125 373.16127 260.60154 381.93945 255.74219 C 391.81491 250.09907 399.57368 242.18311 405.2168 231.99414 L 392.99023 231.99414 C 387.97413 238.73453 382.01823 243.98597 375.12109 247.74805 C 368.3807 251.51012 361.24876 253.39258 353.72461 253.39258 C 341.3411 253.39258 330.28902 248.6884 320.57031 239.2832 C 311.00837 229.72126 306.22656 218.4363 306.22656 205.42578 C 306.22656 192.72876 310.85117 181.59906 320.09961 172.03711 C 329.34806 162.31841 340.47776 157.45898 353.48828 157.45898 C 359.28815 157.45898 365.0888 158.55545 370.88867 160.75 C 379.98036 164.19857 387.18992 169.84202 392.51953 177.67969 L 404.74609 177.67969 C 402.08129 170.93929 396.59504 164.59139 388.28711 158.63477 C 378.09815 151.11061 366.57838 147.34766 353.72461 147.34766 z M 461.17773 174.38867 C 449.8915 174.38867 440.01545 178.46407 431.55078 186.61523 C 422.61584 195.07991 418.14844 205.73803 418.14844 218.5918 C 418.14844 229.87803 422.38102 239.83169 430.8457 248.45312 C 439.31038 256.9178 449.42124 261.15039 461.17773 261.15039 C 473.40449 261.15039 483.67255 256.84018 491.98047 248.21875 C 500.44514 239.44056 504.67773 229.25208 504.67773 217.65234 C 504.67773 206.20936 500.44514 196.17612 491.98047 187.55469 C 483.5158 178.77651 473.24774 174.38867 461.17773 174.38867 z M 563.45898 174.38867 C 557.81587 174.38867 552.48681 175.48514 547.4707 177.67969 C 541.04382 180.34449 535.47994 184.88953 530.77734 191.31641 L 530.77734 176.50391 L 520.43164 176.50391 L 520.43164 288.42578 L 530.77734 288.42578 L 531.24609 244.45703 C 535.47843 250.72716 540.96468 255.27219 547.70508 258.09375 C 552.87794 260.13154 558.12938 261.15039 563.45898 261.15039 C 576.4695 261.15039 587.12957 256.99737 595.4375 248.68945 C 603.90217 240.22477 608.13477 229.8791 608.13477 217.65234 C 608.13477 206.0526 604.05937 196.09894 595.9082 187.79102 C 587.44352 178.85608 576.62626 174.38867 563.45898 174.38867 z M 665.03516 174.38867 C 651.71113 174.38867 640.89582 178.85608 632.58789 187.79102 C 624.43672 196.09894 620.36133 206.0526 620.36133 217.65234 C 620.36133 229.72234 624.51435 239.98844 632.82227 248.45312 C 641.28695 256.9178 652.02464 261.15039 665.03516 261.15039 C 670.36477 261.15039 675.69383 260.13154 681.02344 258.09375 C 687.76383 255.27219 693.25009 250.72716 697.48242 244.45703 L 697.48242 259.26953 L 708.06445 259.26953 L 708.06445 176.50391 L 697.48242 176.50391 L 697.24805 191.31641 C 693.01571 184.73277 687.68665 180.11012 681.25977 177.44531 C 676.08691 175.40752 670.67828 174.38867 665.03516 174.38867 z M 763.32031 176.26953 C 757.05019 176.26953 751.40673 177.83564 746.39062 180.9707 C 742.94205 183.0085 739.96312 185.83023 737.45508 189.43555 L 737.45508 178.38477 L 727.10938 178.38477 L 727.10938 261.15039 L 737.45508 261.15039 L 737.45508 214.83008 C 737.45508 209.97072 738.16149 205.66051 739.57227 201.89844 C 741.13979 198.13636 743.0203 195.07982 745.21484 192.72852 C 748.0364 190.22046 751.01337 188.41759 754.14844 187.32031 C 757.2835 186.22304 760.34201 185.67383 763.32031 185.67383 C 766.14187 185.67383 769.27604 186.30066 772.72461 187.55469 C 776.17318 188.65196 779.07253 190.45484 781.42383 192.96289 C 783.93187 195.47094 785.89195 198.52749 787.30273 202.13281 C 788.71351 205.73813 789.41797 210.20554 789.41797 215.53516 L 789.41797 261.15039 L 800 261.15039 L 800 215.53516 C 800 209.26503 799.05877 203.62158 797.17773 198.60547 C 795.45345 193.58936 792.86654 189.59355 789.41797 186.61523 C 785.65589 182.85316 781.73769 180.18863 777.66211 178.62109 C 773.74328 177.05356 768.96343 176.26953 763.32031 176.26953 z M 461.41406 183.79297 C 469.40848 183.79297 476.77524 186.7719 483.51562 192.72852 C 490.72628 198.99865 494.33203 207.22706 494.33203 217.41602 C 494.33203 227.76173 490.88347 236.30648 483.98633 243.04688 C 477.55945 249.0035 470.0355 251.98047 461.41406 251.98047 C 452.63588 251.98047 444.95473 248.76672 438.37109 242.33984 C 431.78745 235.7562 428.49414 227.76262 428.49414 218.35742 C 428.49414 208.01171 432.0999 199.38933 439.31055 192.49219 C 445.73743 186.69232 453.10614 183.79297 461.41406 183.79297 z M 563.45898 183.79297 C 572.86418 183.79297 580.85973 187.00671 587.44336 193.43359 C 594.18375 199.70373 597.55273 207.93409 597.55273 218.12305 C 597.55273 227.68499 594.339 235.7562 587.91211 242.33984 C 581.64198 248.76672 573.49119 251.98047 563.45898 251.98047 C 554.3673 251.98047 546.53091 248.76672 539.94727 242.33984 C 533.52039 235.7562 530.30664 227.60542 530.30664 217.88672 C 530.30664 208.63828 533.44081 200.64469 539.71094 193.9043 C 546.13782 187.16391 554.05379 183.79297 563.45898 183.79297 z M 665.03516 183.79297 C 674.2836 183.79297 682.12194 187.24153 688.54883 194.13867 C 694.97571 200.87907 698.18945 208.79503 698.18945 217.88672 C 698.18945 227.60542 694.89613 235.7562 688.3125 242.33984 C 681.88561 248.76672 674.12684 251.98047 665.03516 251.98047 C 654.8462 251.98047 646.53821 248.76672 640.11133 242.33984 C 633.8412 235.7562 630.70703 227.68499 630.70703 218.12305 C 630.70703 207.93409 633.9984 199.70373 640.58203 193.43359 C 647.32242 187.00671 655.47321 183.79297 665.03516 183.79297 z M 487.11719 297.32812 L 487.11719 304.54492 L 491.03711 304.54492 L 491.03711 297.32812 L 487.11719 297.32812 z M 517.0957 297.41602 L 517.0957 308.46484 L 510.41406 308.46484 L 510.41406 312.0293 L 517.0957 312.0293 L 517.0957 339.82617 L 521.01562 339.82617 L 521.01562 312.0293 L 528.5 312.0293 L 528.5 308.46484 L 521.01562 308.46484 L 521.01562 297.41602 L 517.0957 297.41602 z M 654.78906 297.41602 L 654.78906 308.46484 L 648.10742 308.46484 L 648.10742 312.0293 L 654.78906 312.0293 L 654.78906 339.82617 L 658.70898 339.82617 L 658.70898 312.0293 L 666.19336 312.0293 L 666.19336 308.46484 L 658.70898 308.46484 L 658.70898 297.41602 L 654.78906 297.41602 z M 313.65234 306.95117 C 308.60352 306.95117 304.50552 308.64362 301.35742 312.0293 C 298.26874 315.17738 296.72461 318.9483 296.72461 323.34375 C 296.72461 327.91739 298.29918 331.80813 301.44727 335.01562 C 304.65475 338.22311 308.72231 339.82617 313.65234 339.82617 C 315.67187 339.82617 317.69141 339.44014 319.71094 338.66797 C 322.26505 337.59881 324.34352 335.87787 325.94727 333.50195 L 325.94727 339.11328 L 329.95703 339.11328 L 329.95703 307.75195 L 325.94727 307.75195 L 325.85938 313.36523 C 324.25563 310.87052 322.23609 309.11913 319.80078 308.10938 C 317.84065 307.3372 315.79066 306.95117 313.65234 306.95117 z M 399.0918 306.95117 C 394.04298 306.95117 389.94497 308.64362 386.79688 312.0293 C 383.70818 315.17738 382.16406 318.9483 382.16406 323.34375 C 382.16406 327.91739 383.73863 331.80813 386.88672 335.01562 C 390.09421 338.22311 394.16177 339.82617 399.0918 339.82617 C 401.11133 339.82617 403.13086 339.44014 405.15039 338.66797 C 407.7045 337.59881 409.78493 335.87787 411.38867 333.50195 L 411.38867 350.16211 L 415.39844 350.16211 L 415.39844 307.75195 L 411.38867 307.75195 L 411.29883 313.36523 C 409.75448 310.92992 407.73495 309.20703 405.24023 308.19727 C 403.2801 307.3657 401.23012 306.95117 399.0918 306.95117 z M 562.13281 306.95117 C 557.61857 306.95117 553.75632 308.58273 550.54883 311.84961 C 547.40074 315.1165 545.82812 318.97875 545.82812 323.43359 C 545.82812 328.06663 547.43119 331.95738 550.63867 335.10547 C 553.84616 338.25356 557.67797 339.82617 562.13281 339.82617 C 565.75609 339.82617 568.9622 338.81641 571.75391 336.79688 C 574.54561 334.71795 576.47576 332.07467 577.54492 328.86719 L 573.44727 328.86719 C 572.67509 331.06491 571.33823 332.81825 569.4375 334.125 C 567.29917 335.60995 564.86512 336.35156 562.13281 336.35156 C 559.04412 336.35156 556.22208 335.19347 553.66797 332.87695 C 551.17326 330.56043 549.92578 327.88867 549.92578 324.85938 L 578.52539 324.85938 L 578.61523 323.78906 C 578.61523 322.36351 578.40797 320.87833 577.99219 319.33398 C 577.5764 317.73024 576.95267 316.2755 576.12109 314.96875 C 574.81434 312.77102 573.061 310.93026 570.86328 309.44531 C 568.24977 307.78217 565.3403 306.95117 562.13281 306.95117 z M 782.14648 306.95117 C 777.09766 306.95117 772.99966 308.64362 769.85156 312.0293 C 766.76287 315.17738 765.21875 318.9483 765.21875 323.34375 C 765.21875 327.91739 766.79331 331.80813 769.94141 335.01562 C 773.14889 338.22311 777.21646 339.82617 782.14648 339.82617 C 784.16602 339.82617 786.18555 339.44014 788.20508 338.66797 C 790.75919 337.59881 792.83766 335.87787 794.44141 333.50195 L 794.44141 339.11328 L 798.45117 339.11328 L 798.45117 307.75195 L 794.44141 307.75195 L 794.35352 313.36523 C 792.74977 310.87052 790.73024 309.11913 788.29492 308.10938 C 786.33479 307.3372 784.28481 306.95117 782.14648 306.95117 z M 614.83008 307.03906 C 610.13764 307.03906 606.12902 308.67257 602.80273 311.93945 C 599.53585 315.20634 597.90234 319.06664 597.90234 323.52148 C 597.90234 328.09512 599.5054 331.98587 602.71289 335.19336 C 605.92038 338.34145 609.95944 339.91602 614.83008 339.91602 C 618.92853 339.91602 622.43325 338.75793 625.34375 336.44141 C 627.36328 334.77826 629.02723 332.6389 630.33398 330.02539 L 626.05664 330.02539 C 625.10627 331.74793 623.88924 333.11523 622.4043 334.125 C 620.32537 335.66935 617.79997 336.44141 614.83008 336.44141 C 611.1474 336.44141 608.05917 335.19393 605.56445 332.69922 C 603.06974 330.14511 601.82227 327.05687 601.82227 323.43359 C 601.82227 319.57273 603.21807 316.3951 606.00977 313.90039 C 608.56388 311.70267 611.50379 310.60352 614.83008 310.60352 C 617.0278 310.60352 619.07778 311.13787 620.97852 312.20703 C 623.17624 313.33559 624.86869 314.99954 626.05664 317.19727 L 630.33398 317.19727 C 628.96784 313.81159 626.68015 311.19681 623.47266 309.35547 C 620.79975 307.81112 617.91876 307.03906 614.83008 307.03906 z M 364.74805 307.66211 C 362.84731 307.66211 361.18337 307.9892 359.75781 308.64258 C 358.03527 309.59294 356.70037 311.10857 355.75 313.1875 L 355.75 308.46484 L 351.82812 308.46484 L 351.82812 339.82617 L 355.75 339.82617 L 355.75 321.47266 C 355.75 319.03734 356.52206 316.86948 358.06641 314.96875 C 358.77918 314.01838 359.72806 313.27677 360.91602 312.74219 C 362.10398 312.14821 363.38189 311.84961 364.74805 311.84961 L 364.74805 307.66211 z M 747.53516 307.66211 C 745.63442 307.66211 743.97048 307.9892 742.54492 308.64258 C 740.82238 309.59294 739.48552 311.10857 738.53516 313.1875 L 738.53516 308.46484 L 734.61523 308.46484 L 734.61523 339.82617 L 738.53516 339.82617 L 738.53516 321.47266 C 738.53516 319.03734 739.30722 316.86948 740.85156 314.96875 C 741.56434 314.01838 742.51517 313.27677 743.70312 312.74219 C 744.89109 312.14821 746.169 311.84961 747.53516 311.84961 L 747.53516 307.66211 z M 437.44727 307.75195 L 437.44727 325.03711 C 437.44727 326.93785 437.65453 328.80906 438.07031 330.65039 C 438.4861 332.43233 439.19922 333.97645 440.20898 335.2832 C 441.21874 336.53056 442.40728 337.50988 443.77344 338.22266 C 445.85236 339.29182 448.25793 339.82617 450.99023 339.82617 C 453.60374 339.82617 455.86099 339.20244 457.76172 337.95508 C 459.18727 336.94532 460.31491 335.66935 461.14648 334.125 L 461.14648 339.11328 L 464.88867 339.11328 L 464.88867 307.75195 L 460.96875 307.75195 L 460.96875 324.32422 C 460.96875 326.87833 460.61121 328.92831 459.89844 330.47266 C 459.42325 331.66061 458.68163 332.75781 457.67188 333.76758 C 456.66211 334.77734 455.62189 335.46197 454.55273 335.81836 C 453.54297 336.17475 452.35639 336.35156 450.99023 336.35156 C 449.62408 336.35156 448.37661 336.1443 447.24805 335.72852 C 445.88189 335.19394 444.66291 334.42188 443.59375 333.41211 C 442.82158 332.40235 442.25873 331.24426 441.90234 329.9375 C 441.54595 328.57135 441.36719 326.93785 441.36719 325.03711 L 441.36719 307.75195 L 437.44727 307.75195 z M 684.94531 307.75195 L 684.94531 325.03711 C 684.94531 326.93785 685.15453 328.80906 685.57031 330.65039 C 685.9861 332.43233 686.69922 333.97645 687.70898 335.2832 C 688.71875 336.53056 689.90533 337.50988 691.27148 338.22266 C 693.35041 339.29182 695.75597 339.82617 698.48828 339.82617 C 701.10179 339.82617 703.35903 339.20244 705.25977 337.95508 C 706.68532 336.94532 707.81492 335.66935 708.64648 334.125 L 708.64648 339.11328 L 712.38867 339.11328 L 712.38867 307.75195 L 708.4668 307.75195 L 708.4668 324.32422 C 708.4668 326.87833 708.11121 328.92831 707.39844 330.47266 C 706.92325 331.66061 706.18164 332.75781 705.17188 333.76758 C 704.16211 334.77734 703.1219 335.46197 702.05273 335.81836 C 701.04297 336.17475 699.85443 336.35156 698.48828 336.35156 C 697.12213 336.35156 695.87465 336.1443 694.74609 335.72852 C 693.37994 335.19394 692.16292 334.42188 691.09375 333.41211 C 690.32158 332.40235 689.75678 331.24426 689.40039 329.9375 C 689.044 328.57135 688.86719 326.93785 688.86719 325.03711 L 688.86719 307.75195 L 684.94531 307.75195 z M 487.11719 308.375 L 487.11719 339.73828 L 491.03711 339.73828 L 491.03711 308.375 L 487.11719 308.375 z M 313.65234 310.51367 C 317.15682 310.51367 320.12718 311.82009 322.5625 314.43359 C 324.99781 316.98771 326.21484 319.98851 326.21484 323.43359 C 326.21484 327.11627 324.96737 330.20451 322.47266 332.69922 C 320.03734 335.13453 317.09742 336.35156 313.65234 336.35156 C 309.79148 336.35156 306.6443 335.13453 304.20898 332.69922 C 301.83307 330.20451 300.64453 327.14476 300.64453 323.52148 C 300.64453 319.66062 301.89201 316.54389 304.38672 314.16797 C 306.94083 311.73266 310.02907 310.51367 313.65234 310.51367 z M 399.0918 310.51367 C 402.59628 310.51367 405.56664 311.82009 408.00195 314.43359 C 410.43727 316.98771 411.65625 319.98851 411.65625 323.43359 C 411.65625 327.11627 410.40878 330.20451 407.91406 332.69922 C 405.47874 335.13453 402.53688 336.35156 399.0918 336.35156 C 395.23094 336.35156 392.08376 335.13453 389.64844 332.69922 C 387.27252 330.20451 386.08398 327.14476 386.08398 323.52148 C 386.08398 319.66062 387.33146 316.54389 389.82617 314.16797 C 392.38028 311.73266 395.46852 310.51367 399.0918 310.51367 z M 562.13281 310.51367 C 564.98391 310.51367 567.5378 311.37512 569.79492 313.09766 C 572.34904 315.05779 573.92164 317.79044 574.51562 321.29492 L 549.83594 321.29492 C 550.42992 317.84984 552.00449 315.11719 554.55859 313.09766 C 556.87511 311.37512 559.40051 310.51367 562.13281 310.51367 z M 782.14648 310.51367 C 785.65096 310.51367 788.62133 311.82009 791.05664 314.43359 C 793.49196 316.98771 794.70898 319.98851 794.70898 323.43359 C 794.70898 327.11627 793.46151 330.20451 790.9668 332.69922 C 788.53148 335.13453 785.59156 336.35156 782.14648 336.35156 C 778.28562 336.35156 775.13845 335.13453 772.70312 332.69922 C 770.32721 330.20451 769.13867 327.14476 769.13867 323.52148 C 769.13867 319.66062 770.38615 316.54389 772.88086 314.16797 C 775.43497 311.73266 778.52321 310.51367 782.14648 310.51367 z "
       transform="translate(8.098423,-1.8751405)" />
  </g>
</svg>
